mtllib 19.mtl
g ⵏ
v 0.007278 9.916718 14.457795
v -9.999969 0.000000 8.358097
v 0.078171 150.582062 14.776876
v -9.999969 160.517914 8.358097
v 10.000000 160.517914 8.358097
v 10.000000 0.000000 8.358097
v -4.615555 155.554626 11.962362
v 4.653564 155.612640 12.020562
v 4.748962 5.107849 11.736636
v -4.575912 5.308533 11.947838
v 0.120544 143.006439 15.667235
v 0.082199 135.203430 15.753588
v 0.029144 127.201447 15.609749
v 0.006592 119.362457 15.321454
v 0.000717 111.836090 15.186831
v -0.002106 104.039642 15.288644
v -0.011093 96.059448 15.400046
v -0.038452 88.186646 15.461369
v -0.059998 80.256958 15.491747
v -0.037018 72.353851 15.471197
v -0.001587 64.524658 15.453909
v 0.035049 56.709564 15.485774
v 0.092377 48.892059 15.561726
v 0.126328 40.999603 15.631521
v 0.091782 33.100769 15.657804
v -0.024704 25.171936 15.618736
v -0.097763 17.267578 15.385530
v -9.999969 8.025940 8.358097
v -10.000000 16.051819 8.358097
v -9.999969 24.077667 8.358097
v -9.999939 32.103546 8.358097
v -9.999969 40.129486 8.358097
v -9.999969 48.155365 8.358097
v -10.000000 56.181305 8.358097
v -9.999939 64.207184 8.358097
v -10.000000 72.233093 8.358097
v -9.999969 80.258911 8.358097
v -10.000000 88.284851 8.358097
v -9.999969 96.310730 8.358097
v -9.999969 104.336670 8.358097
v -9.999969 112.362549 8.358097
v -9.999969 120.388397 8.358097
v -9.999939 128.414276 8.358097
v -10.000000 136.440216 8.358097
v -9.999969 144.466156 8.358097
v -9.999969 152.492035 8.358097
v -3.333344 160.517914 8.358097
v 3.333313 160.517914 8.358097
v 10.000000 152.492035 8.358097
v 10.000000 144.466095 8.358097
v 10.000000 136.440216 8.358097
v 10.000000 128.414276 8.358097
v 10.000000 120.388397 8.358097
v 10.000000 112.362549 8.358097
v 10.000000 104.336670 8.358097
v 10.000000 96.310730 8.358097
v 10.000000 88.284851 8.358097
v 10.000000 80.258911 8.358097
v 10.000000 72.233032 8.358097
v 10.000000 64.207184 8.358097
v 10.000000 56.181244 8.358097
v 10.000000 48.155365 8.358097
v 10.000000 40.129486 8.358097
v 10.000000 32.103577 8.358097
v 10.000000 24.077667 8.358097
v 10.000000 16.051788 8.358097
v 10.000000 8.025940 8.358097
v 3.333313 0.000061 8.358097
v -3.333313 0.000000 8.358097
v -4.133423 147.754608 13.672247
v -4.080704 139.887329 13.931243
v -4.112366 131.911346 13.898782
v -4.197540 123.840942 13.718210
v -4.310883 116.005493 13.479662
v -4.294693 108.366241 13.485962
v -4.240402 100.230438 13.608749
v -4.250504 92.259827 13.653153
v -4.258347 84.252625 13.682295
v -4.263290 76.258911 13.678514
v -4.241943 68.312836 13.675516
v -4.224533 60.331818 13.678540
v -4.167816 52.497620 13.744052
v -4.098068 44.479431 13.834902
v -4.092499 36.492920 13.867486
v -4.150711 28.457855 13.846883
v -4.298279 20.299866 13.671933
v -4.361710 12.730072 13.324676
v 0.031372 155.451874 12.709764
v 4.279709 12.508820 13.377080
v 4.126389 20.489380 13.787167
v 4.208237 28.579895 13.807036
v 4.277969 36.414642 13.778888
v 4.281403 44.494415 13.754086
v 4.267212 52.374878 13.706947
v 4.239639 60.377808 13.681665
v 4.224731 68.275146 13.673470
v 4.174042 76.214569 13.724629
v 4.173767 84.307281 13.722476
v 4.222565 92.265930 13.657318
v 4.234070 100.230927 13.609015
v 4.294083 108.366302 13.485922
v 4.314758 116.005829 13.479445
v 4.218506 123.845276 13.715939
v 4.192398 131.954163 13.875904
v 4.265686 140.011047 13.843011
v 4.295135 147.687866 13.601065
v 0.063843 5.256989 12.528561
v -9.999969 4.012970 8.358097
v -9.999939 28.090607 8.358097
v -9.999939 36.116516 8.358097
v -9.999969 44.142395 8.358097
v -10.000000 52.168335 8.358097
v -9.999969 68.220123 8.358097
v -10.000000 84.271881 8.358097
v -9.999969 100.323700 8.358097
v -9.999939 124.401367 8.358097
v -9.999969 132.427246 8.358097
v -10.000000 140.453186 8.358097
v -9.999969 148.479065 8.358097
v 10.000000 148.479065 8.358097
v 10.000000 132.427246 8.358097
v 10.000000 124.401367 8.358097
v 10.000000 100.323700 8.358097
v 10.000000 84.271881 8.358097
v 10.000000 76.246002 8.358097
v 10.000000 60.194214 8.358097
v 10.000000 44.142395 8.358097
v 10.000000 28.090637 8.358097
v 10.000000 20.064728 8.358097
v -9.999969 0.000000 8.358097
v -9.999969 160.517914 8.358097
v -9.999969 0.000000 -11.641878
v -9.999969 160.517914 -11.641878
v -9.999969 160.517914 8.358097
v 10.000000 160.517914 8.358097
v -9.999969 160.517914 -11.641878
v 10.000000 160.517914 -11.641878
v 10.000000 160.517914 8.358097
v 10.000000 0.000000 8.358097
v 10.000000 160.517914 -11.641878
v 10.000000 0.000000 -11.641878
v 10.000000 0.000000 8.358097
v -9.999969 0.000000 8.358097
v 10.000000 0.000000 -11.641878
v -9.999969 0.000000 -11.641878
v 0.000076 10.000061 -11.641878
v -9.999969 0.000000 -11.641878
v 0.000137 150.517792 -11.641878
v -9.999969 160.517914 -11.641878
v 10.000000 160.517914 -11.641878
v 10.000000 0.000000 -11.641878
vt 0.500003 0.062299
vt 0.000000 0.000000
vt 0.500006 0.937701
vt 0.000000 1.000000
vt 1.000000 1.000000
vt 1.000000 0.000000
vt 0.250003 0.968850
vt 0.750002 0.968850
vt 0.750002 0.031149
vt 0.250002 0.031149
vt 0.500005 0.889068
vt 0.500006 0.840434
vt 0.500005 0.791801
vt 0.500005 0.743167
vt 0.500005 0.694534
vt 0.500005 0.645900
vt 0.500005 0.597267
vt 0.500005 0.548633
vt 0.500005 0.500000
vt 0.500005 0.451366
vt 0.500005 0.402733
vt 0.500005 0.354099
vt 0.500005 0.305466
vt 0.500005 0.256832
vt 0.500005 0.208199
vt 0.500003 0.159566
vt 0.500003 0.110932
vt 0.000000 0.050000
vt -0.000001 0.100000
vt 0.000000 0.150000
vt 0.000001 0.200000
vt 0.000000 0.250000
vt 0.000000 0.300000
vt -0.000001 0.350000
vt 0.000001 0.400000
vt -0.000001 0.450000
vt 0.000000 0.500000
vt -0.000001 0.550000
vt 0.000000 0.600000
vt 0.000000 0.650000
vt 0.000000 0.700000
vt 0.000000 0.750000
vt 0.000001 0.800000
vt -0.000001 0.850000
vt 0.000000 0.900000
vt 0.000000 0.950000
vt 0.333332 1.000000
vt 0.666665 1.000000
vt 1.000000 0.950000
vt 1.000000 0.900000
vt 1.000000 0.850000
vt 1.000000 0.800000
vt 1.000000 0.750000
vt 1.000000 0.700000
vt 1.000000 0.650000
vt 1.000000 0.600000
vt 1.000000 0.550000
vt 1.000000 0.500000
vt 1.000000 0.450000
vt 1.000000 0.400000
vt 1.000000 0.350000
vt 1.000000 0.300000
vt 1.000000 0.250000
vt 1.000000 0.200000
vt 1.000000 0.150000
vt 1.000000 0.100000
vt 1.000000 0.050000
vt 0.666665 0.000000
vt 0.333333 0.000000
vt 0.250003 0.919498
vt 0.250002 0.870145
vt 0.250003 0.820792
vt 0.250002 0.771440
vt 0.250002 0.722087
vt 0.250002 0.672734
vt 0.250002 0.623382
vt 0.250002 0.574029
vt 0.250002 0.524676
vt 0.250002 0.475323
vt 0.250002 0.425971
vt 0.250002 0.376618
vt 0.250002 0.327265
vt 0.250002 0.277913
vt 0.250002 0.228560
vt 0.250002 0.179207
vt 0.250002 0.129855
vt 0.250002 0.080502
vt 0.500002 0.968850
vt 0.750002 0.080502
vt 0.750002 0.129855
vt 0.750002 0.179207
vt 0.750001 0.228560
vt 0.750002 0.277913
vt 0.750002 0.327265
vt 0.750001 0.376618
vt 0.750002 0.425971
vt 0.750002 0.475323
vt 0.750002 0.524676
vt 0.750002 0.574029
vt 0.750002 0.623382
vt 0.750002 0.672734
vt 0.750002 0.722087
vt 0.750002 0.771440
vt 0.750002 0.820792
vt 0.750002 0.870145
vt 0.750002 0.919498
vt 0.500002 0.031149
vt 0.000000 0.025000
vt 0.000001 0.175000
vt 0.000001 0.225000
vt 0.000000 0.275000
vt -0.000001 0.325000
vt 0.000000 0.425000
vt -0.000001 0.525000
vt 0.000000 0.625000
vt 0.000001 0.775000
vt 0.000000 0.825000
vt -0.000001 0.875000
vt 0.000000 0.925000
vt 1.000000 0.925000
vt 1.000000 0.825000
vt 1.000000 0.775000
vt 1.000000 0.625000
vt 1.000000 0.525000
vt 1.000000 0.475000
vt 1.000000 0.375000
vt 1.000000 0.275000
vt 1.000000 0.175000
vt 1.000000 0.125000
vt 1.000000 1.000000
vt 0.555396 1.000000
vt 1.000000 0.000000
vt 0.555396 0.000000
vt 0.555396 1.000000
vt 0.500000 1.000000
vt 0.555396 0.000000
vt 0.500000 0.000000
vt 0.500000 1.000000
vt 0.055396 1.000000
vt 0.500000 0.000000
vt 0.055396 0.000000
vt 0.055396 1.000000
vt 0.000000 1.000000
vt 0.055396 0.000000
vt 0.000000 0.000000
vt 0.500003 0.062299
vt 0.000000 0.000000
vt 0.500006 0.937701
vt 0.000000 1.000000
vt 1.000000 1.000000
vt 1.000000 0.000000
vn 0.001138 -0.212958 0.977061
vn -0.500000 -0.500000 0.707107
vn 0.003810 0.211262 0.975690
vn -0.500000 0.500000 0.707107
vn 0.500000 0.500000 0.707107
vn 0.499152 -0.499156 0.705910
vn -0.324905 0.345220 0.880489
vn 0.322082 0.349018 0.880028
vn 0.318876 -0.326518 0.887875
vn -0.316094 -0.324678 0.889543
vn 0.011190 0.045032 0.997228
vn 0.006992 -0.003275 0.999970
vn 0.001604 -0.023589 0.999720
vn 0.000137 -0.025742 0.997975
vn -0.000000 -0.000977 1.000000
vn -0.000010 0.012915 0.998224
vn -0.000340 0.008509 0.999964
vn -0.003140 0.005349 0.998288
vn -0.005922 0.000349 0.999982
vn -0.003168 -0.002521 0.999992
vn -0.000099 0.000754 0.998307
vn 0.002207 0.005944 0.998287
vn 0.007937 0.008381 0.998240
vn 0.011716 0.004935 0.998226
vn 0.009350 -0.000263 0.999956
vn -0.003236 -0.013239 0.998214
vn -0.012129 -0.058975 0.996490
vn -0.707107 -0.000001 0.707107
vn -0.707107 0.000000 0.707107
vn -0.707107 0.000004 0.707107
vn -0.707107 0.000000 0.707107
vn -0.707107 -0.000002 0.707107
vn -0.707107 -0.000002 0.707107
vn -0.707107 0.000002 0.707107
vn -0.707107 0.000000 0.707107
vn -0.707107 -0.000001 0.707107
vn -0.707107 -0.000001 0.707107
vn -0.707107 0.000001 0.707107
vn -0.707107 0.000001 0.707107
vn -0.707107 0.000000 0.707107
vn -0.707107 0.000000 0.707107
vn -0.707107 0.000002 0.707107
vn -0.707107 -0.000002 0.707107
vn -0.707107 -0.000002 0.707107
vn -0.707107 0.000002 0.707107
vn -0.707107 0.000000 0.707107
vn 0.000000 0.707107 0.707107
vn 0.000000 0.707107 0.707107
vn 0.707107 0.000000 0.707107
vn 0.707107 0.000000 0.707107
vn 0.707107 0.000000 0.707107
vn 0.707107 0.000000 0.707107
vn 0.707107 0.000000 0.707107
vn 0.707107 0.000000 0.707107
vn 0.707107 0.000000 0.707107
vn 0.707107 0.000000 0.707107
vn 0.707107 0.000000 0.707107
vn 0.707107 0.000000 0.707107
vn 0.707107 0.000000 0.707107
vn 0.707107 0.000000 0.707107
vn 0.707107 0.000000 0.707107
vn 0.707107 0.000000 0.707107
vn 0.707107 0.000000 0.707107
vn 0.707107 0.000000 0.707107
vn 0.707107 0.000000 0.707107
vn 0.707107 0.000000 0.707107
vn 0.707107 0.000000 0.707107
vn 0.000000 -0.707107 0.707107
vn 0.000003 -0.707107 0.707107
vn -0.505049 0.082863 0.857132
vn -0.545166 0.010094 0.836247
vn -0.547707 -0.007313 0.834614
vn -0.540699 -0.016805 0.841048
vn -0.532381 -0.009296 0.844453
vn -0.529634 0.005295 0.846213
vn -0.533445 0.007529 0.843799
vn -0.540590 0.004733 0.841273
vn -0.543229 0.002149 0.837565
vn -0.544739 -0.001393 0.838604
vn -0.542089 -0.001718 0.840320
vn -0.541431 0.001087 0.840744
vn -0.540487 0.003715 0.839332
vn -0.541715 0.003814 0.840554
vn -0.544225 0.002612 0.838935
vn -0.547156 -0.001559 0.837029
vn -0.544581 -0.018399 0.836487
vn -0.501453 -0.084521 0.861046
vn -0.007235 0.503732 0.861869
vn 0.492883 -0.088402 0.863637
vn 0.535005 -0.020085 0.844610
vn 0.551070 -0.005512 0.834441
vn 0.556299 0.000305 0.830982
vn 0.552673 0.004798 0.831353
vn 0.547925 0.005986 0.836506
vn 0.542450 0.003297 0.840081
vn 0.539970 -0.000008 0.839672
vn 0.538048 -0.000788 0.840905
vn 0.537716 0.001714 0.841116
vn 0.538718 0.003713 0.842478
vn 0.533929 0.006895 0.845501
vn 0.529598 0.005030 0.846237
vn 0.532640 -0.009823 0.844284
vn 0.542104 -0.018202 0.840114
vn 0.553022 -0.009320 0.831081
vn 0.556908 0.008965 0.828486
vn 0.516242 0.079746 0.850736
vn 0.009011 -0.484734 0.874615
vn -0.707107 0.000000 0.707107
vn -0.707107 0.000002 0.707107
vn -0.707107 -0.000002 0.707107
vn -0.707107 0.000000 0.707107
vn -0.707107 -0.000002 0.707107
vn -0.707107 -0.000005 0.707107
vn -0.707107 -0.000002 0.707107
vn -0.707107 0.000000 0.707107
vn -0.707107 0.000002 0.707107
vn -0.707107 -0.000005 0.707107
vn -0.707107 0.000002 0.707107
vn -0.707107 0.000000 0.707107
vn 0.707107 0.000000 0.707107
vn 0.707107 0.000000 0.707107
vn 0.707107 0.000000 0.707107
vn 0.707107 0.000000 0.707107
vn 0.707107 0.000000 0.707107
vn 0.707107 0.000000 0.707107
vn 0.707107 0.000000 0.707107
vn 0.707107 0.000000 0.707107
vn 0.707107 0.000000 0.707107
vn 0.707107 0.000000 0.707107
vn -1.000000 0.000000 0.000000
vn -1.000000 0.000000 0.000000
vn -1.000000 0.000000 0.000000
vn -1.000000 0.000000 0.000000
vn 0.000000 1.000000 0.000000
vn 0.000000 1.000000 0.000000
vn 0.000000 1.000000 0.000000
vn 0.000000 1.000000 0.000000
vn 1.000000 0.000000 0.000000
vn 1.000000 0.000000 0.000000
vn 1.000000 0.000000 0.000000
vn 1.000000 0.000000 0.000000
vn 0.000000 -1.000000 0.000000
vn 0.000000 -1.000000 0.000000
vn 0.000000 -1.000000 0.000000
vn 0.000000 -1.000000 0.000000
vn 0.000000 0.000000 -1.000000
vn 0.000000 0.000000 -1.000000
vn 0.000000 0.000000 -1.000000
vn 0.000000 0.000000 -1.000000
vn 0.000000 0.000000 -0.998307
vn 0.000000 0.000000 -1.000000
usemtl ⵏ Front Inflation Material
f 87/87/87 86/86/86 29/29/29
f 88/88/88 8/8/8 48/48/48
f 106/106/106 105/105/105 50/50/50
f 107/107/107 10/10/10 69/69/69
f 10/10/10 1/1/1 87/87/87
f 7/7/7 3/3/3 88/88/88
f 8/8/8 3/3/3 106/106/106
f 9/9/9 1/1/1 107/107/107
f 29/29/29 28/28/28 87/87/87
f 29/29/29 86/86/86 30/30/30
f 87/87/87 28/28/28 10/10/10
f 28/28/28 108/108/108 10/10/10
f 2/2/2 10/10/10 108/108/108
f 86/86/86 85/85/85 30/30/30
f 30/30/30 85/85/85 109/109/109
f 109/109/109 85/85/85 31/31/31
f 85/85/85 84/84/84 31/31/31
f 31/31/31 84/84/84 110/110/110
f 110/110/110 84/84/84 32/32/32
f 84/84/84 83/83/83 32/32/32
f 32/32/32 83/83/83 111/111/111
f 111/111/111 83/83/83 33/33/33
f 83/83/83 82/82/82 33/33/33
f 33/33/33 82/82/82 112/112/112
f 112/112/112 82/82/82 34/34/34
f 82/82/82 81/81/81 34/34/34
f 34/34/34 81/81/81 35/35/35
f 81/81/81 80/80/80 35/35/35
f 35/35/35 80/80/80 113/113/113
f 113/113/113 80/80/80 36/36/36
f 80/80/80 79/79/79 36/36/36
f 36/36/36 79/79/79 37/37/37
f 79/79/79 78/78/78 37/37/37
f 37/37/37 78/78/78 114/114/114
f 114/114/114 78/78/78 38/38/38
f 78/78/78 77/77/77 38/38/38
f 38/38/38 77/77/77 39/39/39
f 77/77/77 76/76/76 39/39/39
f 39/39/39 76/76/76 115/115/115
f 115/115/115 76/76/76 40/40/40
f 76/76/76 75/75/75 40/40/40
f 40/40/40 75/75/75 41/41/41
f 75/75/75 74/74/74 41/41/41
f 41/41/41 74/74/74 42/42/42
f 74/74/74 73/73/73 42/42/42
f 42/42/42 73/73/73 116/116/116
f 116/116/116 73/73/73 43/43/43
f 73/73/73 72/72/72 43/43/43
f 43/43/43 72/72/72 117/117/117
f 117/117/117 72/72/72 44/44/44
f 72/72/72 71/71/71 44/44/44
f 44/44/44 71/71/71 118/118/118
f 118/118/118 71/71/71 45/45/45
f 71/71/71 70/70/70 45/45/45
f 45/45/45 70/70/70 119/119/119
f 119/119/119 70/70/70 46/46/46
f 70/70/70 7/7/7 46/46/46
f 4/4/4 46/46/46 7/7/7
f 48/48/48 47/47/47 88/88/88
f 5/5/5 48/48/48 8/8/8
f 88/88/88 47/47/47 7/7/7
f 4/4/4 7/7/7 47/47/47
f 50/50/50 120/120/120 106/106/106
f 50/50/50 105/105/105 51/51/51
f 120/120/120 49/49/49 106/106/106
f 106/106/106 49/49/49 8/8/8
f 5/5/5 8/8/8 49/49/49
f 105/105/105 104/104/104 51/51/51
f 51/51/51 104/104/104 121/121/121
f 121/121/121 104/104/104 52/52/52
f 104/104/104 103/103/103 52/52/52
f 52/52/52 103/103/103 122/122/122
f 122/122/122 103/103/103 53/53/53
f 103/103/103 102/102/102 53/53/53
f 53/53/53 102/102/102 54/54/54
f 102/102/102 101/101/101 54/54/54
f 54/54/54 101/101/101 55/55/55
f 101/101/101 100/100/100 55/55/55
f 55/55/55 100/100/100 123/123/123
f 123/123/123 100/100/100 56/56/56
f 100/100/100 99/99/99 56/56/56
f 56/56/56 99/99/99 57/57/57
f 99/99/99 98/98/98 57/57/57
f 57/57/57 98/98/98 124/124/124
f 124/124/124 98/98/98 58/58/58
f 98/98/98 97/97/97 58/58/58
f 58/58/58 97/97/97 125/125/125
f 125/125/125 97/97/97 59/59/59
f 97/97/97 96/96/96 59/59/59
f 59/59/59 96/96/96 60/60/60
f 96/96/96 95/95/95 60/60/60
f 60/60/60 95/95/95 126/126/126
f 126/126/126 95/95/95 61/61/61
f 95/95/95 94/94/94 61/61/61
f 61/61/61 94/94/94 62/62/62
f 94/94/94 93/93/93 62/62/62
f 62/62/62 93/93/93 127/127/127
f 127/127/127 93/93/93 63/63/63
f 93/93/93 92/92/92 63/63/63
f 63/63/63 92/92/92 64/64/64
f 92/92/92 91/91/91 64/64/64
f 64/64/64 91/91/91 128/128/128
f 128/128/128 91/91/91 65/65/65
f 91/91/91 90/90/90 65/65/65
f 65/65/65 90/90/90 129/129/129
f 129/129/129 90/90/90 66/66/66
f 90/90/90 89/89/89 66/66/66
f 66/66/66 89/89/89 67/67/67
f 89/89/89 9/9/9 67/67/67
f 6/6/6 67/67/67 9/9/9
f 69/69/69 68/68/68 107/107/107
f 2/2/2 69/69/69 10/10/10
f 107/107/107 68/68/68 9/9/9
f 6/6/6 9/9/9 68/68/68
f 1/1/1 27/27/27 87/87/87
f 87/87/87 27/27/27 86/86/86
f 27/27/27 26/26/26 86/86/86
f 86/86/86 26/26/26 85/85/85
f 26/26/26 25/25/25 85/85/85
f 85/85/85 25/25/25 84/84/84
f 25/25/25 24/24/24 84/84/84
f 84/84/84 24/24/24 83/83/83
f 24/24/24 23/23/23 83/83/83
f 83/83/83 23/23/23 82/82/82
f 23/23/23 22/22/22 82/82/82
f 82/82/82 22/22/22 81/81/81
f 22/22/22 21/21/21 81/81/81
f 81/81/81 21/21/21 80/80/80
f 21/21/21 20/20/20 80/80/80
f 80/80/80 20/20/20 79/79/79
f 20/20/20 19/19/19 79/79/79
f 79/79/79 19/19/19 78/78/78
f 19/19/19 18/18/18 78/78/78
f 78/78/78 18/18/18 77/77/77
f 18/18/18 17/17/17 77/77/77
f 77/77/77 17/17/17 76/76/76
f 17/17/17 16/16/16 76/76/76
f 76/76/76 16/16/16 75/75/75
f 16/16/16 15/15/15 75/75/75
f 75/75/75 15/15/15 74/74/74
f 15/15/15 14/14/14 74/74/74
f 74/74/74 14/14/14 73/73/73
f 14/14/14 13/13/13 73/73/73
f 73/73/73 13/13/13 72/72/72
f 13/13/13 12/12/12 72/72/72
f 72/72/72 12/12/12 71/71/71
f 12/12/12 11/11/11 71/71/71
f 71/71/71 11/11/11 70/70/70
f 11/11/11 3/3/3 70/70/70
f 7/7/7 70/70/70 3/3/3
f 8/8/8 88/88/88 3/3/3
f 3/3/3 11/11/11 106/106/106
f 106/106/106 11/11/11 105/105/105
f 11/11/11 12/12/12 105/105/105
f 105/105/105 12/12/12 104/104/104
f 12/12/12 13/13/13 104/104/104
f 104/104/104 13/13/13 103/103/103
f 13/13/13 14/14/14 103/103/103
f 103/103/103 14/14/14 102/102/102
f 14/14/14 15/15/15 102/102/102
f 102/102/102 15/15/15 101/101/101
f 15/15/15 16/16/16 101/101/101
f 101/101/101 16/16/16 100/100/100
f 16/16/16 17/17/17 100/100/100
f 100/100/100 17/17/17 99/99/99
f 17/17/17 18/18/18 99/99/99
f 99/99/99 18/18/18 98/98/98
f 18/18/18 19/19/19 98/98/98
f 98/98/98 19/19/19 97/97/97
f 19/19/19 20/20/20 97/97/97
f 97/97/97 20/20/20 96/96/96
f 20/20/20 21/21/21 96/96/96
f 96/96/96 21/21/21 95/95/95
f 21/21/21 22/22/22 95/95/95
f 95/95/95 22/22/22 94/94/94
f 22/22/22 23/23/23 94/94/94
f 94/94/94 23/23/23 93/93/93
f 23/23/23 24/24/24 93/93/93
f 93/93/93 24/24/24 92/92/92
f 24/24/24 25/25/25 92/92/92
f 92/92/92 25/25/25 91/91/91
f 25/25/25 26/26/26 91/91/91
f 91/91/91 26/26/26 90/90/90
f 26/26/26 27/27/27 90/90/90
f 90/90/90 27/27/27 89/89/89
f 27/27/27 1/1/1 89/89/89
f 9/9/9 89/89/89 1/1/1
f 10/10/10 107/107/107 1/1/1
usemtl ⵏ Front Bevel Material
f 1/1/1 1/1/1 1/1/1
usemtl ⵏ Extrusion Material
f 132/132/132 130/130/130 131/131/131
f 132/132/132 131/131/131 133/133/133
f 136/136/136 134/134/134 135/135/135
f 136/136/136 135/135/135 137/137/137
f 140/140/140 138/138/138 139/139/139
f 140/140/140 139/139/139 141/141/141
f 144/144/144 142/142/142 143/143/143
f 144/144/144 143/143/143 145/145/145
usemtl ⵏ Back Bevel Material
f 1/1/1 1/1/1 1/1/1
usemtl ⵏ Back Inflation Material
f 149/149/149 148/148/148 146/146/146
f 149/149/149 150/150/150 148/148/148
f 151/151/151 146/146/146 148/148/148
f 151/151/151 147/147/147 146/146/146
f 146/146/146 147/147/147 149/149/149
f 148/148/148 150/150/150 151/151/151
